<?xml version="1.0" standalone="no"?>
<!DOCTYPE svg PUBLIC "-//W3C//DTD SVG 20010904//EN"
 "http://www.w3.org/TR/2001/REC-SVG-20010904/DTD/svg10.dtd">
<svg version="1.0" xmlns="http://www.w3.org/2000/svg"
 width="392.000000pt" height="392.000000pt" viewBox="0 0 392.000000 392.000000"
 preserveAspectRatio="xMidYMid meet">
<metadata>
Created by potrace 1.11, written by Peter Selinger 2001-2013
</metadata>
<g transform="translate(0.000000,392.000000) scale(0.100000,-0.100000)"
fill="#000000" stroke="none">
<path d="M1790 3909 c-684 -61 -1290 -480 -1590 -1100 -261 -542 -261 -1156 1
-1699 230 -477 649 -843 1155 -1009 479 -157 994 -122 1454 100 396 191 718
513 909 909 262 543 262 1157 1 1699 -304 629 -906 1040 -1610 1101 -130 11
-184 11 -320 -1z m358 -130 c412 -45 781 -217 1081 -504 506 -484 688 -1227
466 -1893 -156 -467 -506 -862 -947 -1072 -371 -176 -789 -223 -1184 -135
-628 141 -1136 599 -1339 1207 -216 647 -56 1350 420 1847 385 402 954 610
1503 550z"/>
<path d="M1866 3670 c-4 -14 -52 -239 -107 -500 -85 -402 -127 -648 -114 -670
2 -3 23 -4 47 -2 42 4 45 6 105 95 l62 92 21 134 c21 127 22 152 15 485 -7
336 -14 425 -29 366z"/>
<path d="M2037 3665 c-3 -16 -9 -183 -13 -370 -6 -322 -5 -349 16 -475 22
-135 22 -135 82 -227 60 -90 62 -91 106 -95 24 -2 45 -1 47 2 1 3 -1 48 -6
100 -7 86 -198 1027 -218 1075 -7 18 -9 17 -14 -10z"/>
<path d="M1350 3416 l-195 -115 -284 -293 c-195 -202 -314 -334 -382 -423
l-97 -130 11 -100 12 -99 125 -57 c111 -50 146 -60 317 -93 l191 -37 140 86
c77 47 144 91 149 98 5 7 44 91 86 188 66 155 82 202 122 380 26 112 78 313
117 447 39 133 69 244 67 246 -2 2 -44 7 -94 10 l-90 7 -195 -115z"/>
<path d="M2243 3523 c-29 -2 -53 -9 -53 -14 0 -6 31 -117 69 -247 38 -130 90
-328 115 -440 41 -178 56 -224 123 -380 42 -97 81 -182 86 -189 5 -7 72 -51
149 -98 l140 -86 191 37 c171 33 206 43 317 93 l125 57 12 99 11 100 -89 120
c-59 80 -187 222 -381 422 l-292 303 -196 115 c-211 124 -192 117 -327 108z"/>
<path d="M1907 2638 l-45 -53 24 -125 c19 -101 28 -128 46 -142 29 -22 31 -22
58 0 18 15 27 42 46 143 21 115 21 125 6 144 -36 43 -76 85 -83 85 -4 0 -28
-24 -52 -52z"/>
<path d="M1724 2402 c-52 -38 -133 -134 -171 -202 -36 -65 -47 -144 -37 -261
4 -53 13 -87 24 -102 l18 -21 22 44 c60 117 209 570 188 570 -3 0 -23 -13 -44
-28z"/>
<path d="M2153 2389 c7 -50 152 -462 187 -529 l22 -44 18 21 c21 27 34 154 24
245 -4 43 -17 81 -40 123 -39 70 -137 182 -184 209 l-33 19 6 -44z"/>
<path d="M1860 2240 c-43 -84 -151 -403 -163 -481 -11 -75 -10 -77 19 -130 22
-38 47 -65 88 -92 55 -38 57 -38 82 -22 l26 17 -5 346 c-2 191 -8 361 -14 377
l-10 30 -23 -45z"/>
<path d="M2025 2253 c-4 -16 -10 -184 -12 -375 l-5 -347 26 -16 c25 -16 27
-16 82 22 41 27 66 54 87 91 30 53 30 55 19 131 -15 104 -164 521 -186 521 -2
0 -7 -12 -11 -27z"/>
<path d="M391 2011 c-30 -58 -31 -66 -31 -183 0 -119 2 -128 48 -270 l47 -146
80 -59 c44 -32 85 -62 92 -66 7 -4 47 10 90 32 97 49 235 185 312 308 l52 82
-35 68 -34 69 -114 61 c-187 101 -311 150 -400 158 l-77 7 -30 -61z"/>
<path d="M1226 1989 c-52 -53 -75 -85 -72 -97 3 -9 12 -57 21 -107 8 -49 18
-100 20 -112 10 -42 219 -162 287 -163 3 0 11 22 18 49 11 45 8 64 -24 210
-41 183 -70 243 -134 279 l-39 22 -77 -81z"/>
<path d="M2576 2046 c-64 -39 -93 -98 -132 -278 -32 -145 -34 -165 -24 -209 7
-27 15 -49 18 -49 39 1 125 38 196 84 47 32 86 58 86 59 1 1 11 58 24 127 27
145 31 132 -71 232 l-58 58 -39 -24z"/>
<path d="M3375 2060 c-58 -9 -217 -78 -363 -158 -103 -56 -104 -57 -138 -125
l-35 -68 52 -82 c77 -123 215 -259 312 -308 43 -22 83 -36 90 -32 7 4 48 34
92 66 l80 59 47 146 c46 142 48 151 48 270 0 117 -1 125 -30 182 -29 58 -32
60 -68 59 -20 -1 -59 -5 -87 -9z"/>
<path d="M1069 1472 c-36 -21 -108 -73 -159 -117 -52 -44 -123 -103 -159 -132
-58 -46 -68 -60 -93 -125 -15 -40 -28 -77 -28 -83 0 -5 17 -49 37 -98 36 -83
42 -92 136 -174 85 -75 110 -92 185 -120 48 -18 89 -33 92 -33 3 0 32 35 66
78 54 69 66 93 112 227 28 83 63 195 77 250 l26 100 -23 99 -23 99 -91 33 -90
32 -65 -36z"/>
<path d="M2695 1476 l-90 -33 -23 -99 -23 -99 26 -100 c14 -55 49 -167 77
-250 46 -134 58 -158 112 -227 34 -43 63 -78 66 -78 3 0 44 15 92 33 77 29
100 44 186 121 93 83 100 92 135 174 20 48 37 92 37 97 0 6 -13 43 -28 83 -25
64 -35 78 -92 124 -36 29 -108 89 -160 133 -52 45 -124 98 -160 117 l-65 36
-90 -32z"/>
<path d="M1567 1327 c-55 -39 -61 -49 -93 -131 -37 -95 -139 -487 -150 -576
l-7 -55 23 20 c29 25 54 64 268 415 149 245 172 289 167 315 -7 40 -11 42 -85
49 -65 6 -65 6 -123 -37z"/>
<path d="M2200 1361 c-39 -5 -45 -10 -53 -38 -11 -37 -27 -8 217 -408 94 -154
186 -296 204 -315 l34 -35 -7 55 c-9 85 -111 478 -149 576 -32 82 -38 91 -93
131 -59 43 -68 45 -153 34z"/>
<path d="M1873 1178 c-37 -35 -61 -73 -120 -198 -41 -85 -90 -193 -109 -239
l-34 -85 26 -80 c29 -92 43 -107 147 -167 39 -23 96 -57 125 -77 l52 -35 53
35 c28 20 85 54 124 77 103 59 118 75 147 165 l25 78 -33 87 c-19 47 -68 156
-108 241 -60 125 -84 163 -121 198 -39 35 -53 42 -87 42 -34 0 -48 -7 -87 -42z"/>
</g>
</svg>
